<?xml version="1.0" encoding="utf-8"?>
<!-- Generator: Adobe Illustrator 15.0.2, SVG Export Plug-In . SVG Version: 6.00 Build 0)  -->
<!DOCTYPE svg PUBLIC "-//W3C//DTD SVG 1.1//EN" "http://www.w3.org/Graphics/SVG/1.1/DTD/svg11.dtd">
<svg version="1.1" id="Layer_1" xmlns="http://www.w3.org/2000/svg" xmlns:xlink="http://www.w3.org/1999/xlink" x="0px" y="0px"
	 width="400px" height="200px" viewBox="0 0 400 200" enable-background="new 0 0 400 200" xml:space="preserve">
<g id="Logo">
	<path fill="#FFFFFF" d="M1.788,0v200H201.79V0H1.788z M131.983,195.502H104.25v-27.731h27.732V195.502z M131.983,162.847H104.25
		v-27.732h27.732V162.847z M131.983,130.193H104.25v-27.729h27.732V130.193z M131.983,97.541H104.25v-27.73h27.732V97.541z
		 M164.637,162.847h-27.733v-27.732h27.733V162.847z M164.637,97.541h-27.733v-27.73h27.733V97.541z M197.289,130.193h-27.731
		v-27.729h27.731V130.193z M197.289,97.541h-27.731v-27.73h27.731V97.541z"/>
</g>
<g id="Lettering">
	<path fill="#FFFFFF" d="M228.878,195.604h-13.656v-60.48h13.656V195.604z"/>
	<path fill="#FFFFFF" d="M228.878,109.646h-13.656v13.662h13.656V109.646z"/>
	<path fill="#FFFFFF" d="M384.644,195.594h-13.652v-85.948h13.652V195.594z"/>
	<path fill="#FFFFFF" d="M352.685,141.953c-5.996-6.027-13.553-9.09-22.461-9.09c-8.916,0-16.494,3.23-22.522,9.6
		c-6.025,6.364-9.082,14.104-9.082,23.013s3.036,16.631,9.024,22.956c5.994,6.33,13.703,9.543,22.914,9.543
		c6.662,0,12.473-1.575,17.27-4.688c4.787-3.105,8.994-7.975,12.511-14.471l0.287-0.532h-0.604h-12.199h-0.186l-0.107,0.15
		c-4.244,5.875-9.965,8.852-17.002,8.852c-4.901,0-9.172-1.758-12.698-5.226c-3.457-3.394-5.402-7.937-5.787-13.509h46.344h3.309
		h0.355v-0.36v-1.375C361.826,156.344,358.677,147.983,352.685,141.953z M312.472,157.317c3-9.167,8.977-13.815,17.778-13.815
		c4.418,0,8.38,1.265,11.771,3.761c3.27,2.407,5.436,5.788,6.441,10.056L312.472,157.317L312.472,157.317z"/>
	<polygon fill="#FFFFFF" points="295.906,135.123 279.515,135.123 268.212,152.131 256.906,135.123 240.515,135.123 
		260.015,164.467 239.327,195.594 255.722,195.594 268.212,176.807 280.697,195.594 297.093,195.594 276.409,164.467 	"/>
	<path fill="#FFFFFF" d="M227.052,73.63l-1.912,3.114c-0.506-0.269-0.994-0.4-1.469-0.4c-0.92,0-1.748,0.452-2.49,1.355
		c-0.742,0.906-1.297,2.091-1.668,3.56c-0.371,1.467-0.557,4.113-0.557,7.939v8.318h-3.736V73.275h3.736v2.624
		c0.741-1.095,1.491-1.914,2.246-2.446c0.758-0.535,1.616-0.803,2.579-0.803C224.747,72.652,225.837,72.979,227.052,73.63z"/>
	<path fill="#FFFFFF" d="M252.077,97.516h-3.603v-3.558c-2.643,2.906-5.682,4.358-9.121,4.358c-3.438,0-6.383-1.267-8.828-3.804
		c-2.446-2.537-3.672-5.56-3.672-9.075c0-3.513,1.232-6.523,3.693-9.028c2.461-2.507,5.465-3.758,9.008-3.758s6.518,1.44,8.92,4.314
		v-3.691h3.604v24.242H252.077z M239.624,94.893c2.461,0,4.58-0.891,6.358-2.668c1.779-1.78,2.668-3.996,2.668-6.65
		c0-2.656-0.875-4.877-2.625-6.671c-1.75-1.792-3.893-2.693-6.428-2.693c-2.533,0-4.68,0.929-6.428,2.782
		c-1.75,1.854-2.625,4.04-2.625,6.561s0.891,4.708,2.67,6.562C234.997,93.965,237.132,94.893,239.624,94.893z"/>
	<path fill="#FFFFFF" d="M280.056,97.516h-3.604v-3.558c-2.64,2.906-5.688,4.358-9.144,4.358c-3.453,0-6.395-1.261-8.828-3.78
		c-2.43-2.522-3.646-5.548-3.646-9.076s1.229-6.546,3.69-9.052c2.463-2.507,5.461-3.758,9.008-3.758c3.541,0,6.519,1.44,8.919,4.314
		V64.156h3.604V97.516z M267.601,94.893c2.34,0,4.435-0.875,6.271-2.624c1.838-1.75,2.756-3.965,2.756-6.65
		c0-2.684-0.853-4.922-2.558-6.716c-1.705-1.792-3.856-2.693-6.45-2.693c-2.597,0-4.761,0.929-6.492,2.782
		c-1.734,1.854-2.604,4.034-2.604,6.536c0,2.51,0.89,4.694,2.67,6.561C262.974,93.959,265.111,94.893,267.601,94.893z"/>
	<path fill="#FFFFFF" d="M288.806,97.516h-3.695v-24.24h3.695V97.516z"/>
	<path fill="#FFFFFF" d="M288.806,69.673h-3.695v-3.692h3.695V69.673z"/>
	<path fill="#FFFFFF" d="M317.204,97.516h-3.603v-3.558c-2.639,2.906-5.68,4.358-9.117,4.358c-3.44,0-6.387-1.267-8.832-3.804
		c-2.442-2.537-3.668-5.56-3.668-9.075c0-3.513,1.23-6.523,3.691-9.028c2.463-2.507,5.465-3.758,9.01-3.758
		c3.543,0,6.517,1.44,8.916,4.314v-3.691h3.605v24.242H317.204z M304.751,94.893c2.463,0,4.584-0.891,6.36-2.668
		c1.779-1.78,2.668-3.996,2.668-6.65c0-2.656-0.875-4.877-2.623-6.671c-1.752-1.792-3.893-2.693-6.428-2.693
		c-2.537,0-4.68,0.929-6.43,2.782c-1.754,1.854-2.625,4.04-2.625,6.561s0.889,4.708,2.67,6.562
		C300.124,93.965,302.259,94.893,304.751,94.893z"/>
	<path fill="#FFFFFF" d="M332.314,76.477h-4.803V93.47c0,0.624,0.088,1,0.262,1.134c0.182,0.132,0.625,0.202,1.334,0.202h2.137
		v3.157c-1.422,0.24-2.506,0.357-3.245,0.357c-1.423,0-2.479-0.348-3.158-1.046c-0.683-0.695-1.021-1.801-1.021-3.313V76.477h-4.182
		v-3.201h4.182v-7.294h3.693v7.294h4.803L332.314,76.477L332.314,76.477z"/>
	<path fill="#FFFFFF" d="M384.644,97.516h-3.603v-3.558c-2.641,2.906-5.686,4.358-9.141,4.358s-6.4-1.261-8.83-3.78
		c-2.432-2.522-3.647-5.548-3.647-9.076s1.229-6.546,3.692-9.052c2.461-2.507,5.463-3.758,9.008-3.758
		c3.539,0,6.517,1.44,8.918,4.314V64.156h3.603V97.516z M372.191,94.893c2.34,0,4.435-0.875,6.271-2.624
		c1.839-1.75,2.759-3.965,2.759-6.65c0-2.684-0.855-4.922-2.562-6.716c-1.703-1.792-3.852-2.693-6.447-2.693
		c-2.594,0-4.758,0.929-6.493,2.782c-1.732,1.854-2.603,4.034-2.603,6.536c0,2.51,0.89,4.694,2.67,6.561
		C367.564,93.959,369.698,94.893,372.191,94.893z"/>
	<path fill="#FFFFFF" d="M344.871,94.893c-2.282,0-4.244-0.808-5.893-2.423c-1.645-1.617-2.543-3.76-2.689-6.429h21.261
		c-0.089-4.152-1.32-7.418-3.691-9.808c-2.373-2.385-5.324-3.58-8.85-3.58c-3.529,0-6.49,1.262-8.877,3.781
		c-2.386,2.52-3.578,5.547-3.578,9.074c0,3.529,1.184,6.544,3.559,9.053c2.373,2.506,5.381,3.758,9.029,3.758
		c2.637,0,4.906-0.616,6.805-1.846c1.896-1.23,3.541-3.135,4.938-5.716h-4.109C350.804,93.508,348.168,94.893,344.871,94.893z
		 M345.009,76.209c2.045,0,3.852,0.58,5.424,1.734c1.572,1.157,2.58,2.774,3.022,4.849h-16.722
		C338.097,78.404,340.855,76.209,345.009,76.209z"/>
</g>
</svg>
